<?xml version="1.0" encoding="UTF-8"?>
<svg xmlns="http://www.w3.org/2000/svg" xmlns:xlink="http://www.w3.org/1999/xlink" width="85pt" height="85pt" viewBox="0 0 85 85" version="1.1">
<g id="surface1">
<path style=" stroke:none;fill-rule:evenodd;fill:rgb(10.588235%,12.156863%,13.72549%);fill-opacity:1;" d="M 42.335938 0 C 18.945312 0 0 18.945312 0 42.335938 C 0 61.074219 12.121094 76.894531 28.949219 82.503906 C 31.066406 82.875 31.859375 81.605469 31.859375 80.492188 C 31.859375 79.488281 31.804688 76.15625 31.804688 72.605469 C 21.167969 74.566406 18.414062 70.015625 17.570312 67.632812 C 17.09375 66.417969 15.03125 62.660156 13.230469 61.652344 C 11.75 60.859375 9.632812 58.902344 13.179688 58.847656 C 16.511719 58.796875 18.894531 61.917969 19.6875 63.191406 C 23.496094 69.589844 29.582031 67.789062 32.015625 66.683594 C 32.386719 63.929688 33.5 62.074219 34.714844 61.019531 C 25.296875 59.960938 15.453125 56.308594 15.453125 40.113281 C 15.453125 35.507812 17.09375 31.699219 19.792969 28.734375 C 19.367188 27.679688 17.886719 23.335938 20.214844 17.515625 C 20.214844 17.515625 23.761719 16.40625 31.859375 21.859375 C 35.242188 20.90625 38.847656 20.425781 42.441406 20.425781 C 46.042969 20.425781 49.640625 20.90625 53.027344 21.859375 C 61.125 16.355469 64.667969 17.515625 64.667969 17.515625 C 66.996094 23.335938 65.515625 27.679688 65.09375 28.734375 C 67.789062 31.699219 69.433594 35.457031 69.433594 40.113281 C 69.433594 56.363281 59.535156 59.960938 50.117188 61.019531 C 51.648438 62.339844 52.972656 64.882812 52.972656 68.851562 C 52.972656 74.511719 52.921875 79.066406 52.921875 80.492188 C 52.921875 81.605469 53.714844 82.925781 55.832031 82.503906 C 72.554688 76.894531 84.675781 61.019531 84.675781 42.335938 C 84.675781 18.945312 65.730469 0 42.335938 0 Z M 42.335938 0 "/>
</g>
</svg>
