<?xml version="1.0" encoding="UTF-8"?>
<svg xmlns="http://www.w3.org/2000/svg" xmlns:xlink="http://www.w3.org/1999/xlink" width="100pt" height="100pt" viewBox="0 0 100 100" version="1.1">
<g id="surface1">
<path style=" stroke:none;fill-rule:evenodd;fill:rgb(0%,0%,0%);fill-opacity:1;" d="M 48.699219 8.675781 C 48.59375 8.785156 47.242188 9.09375 45.695312 9.363281 C 38.167969 10.65625 31.808594 14.378906 28.160156 19.621094 C 21.96875 28.515625 21.519531 29.753906 21.523438 37.976562 C 21.527344 52.878906 26.929688 60.523438 41.515625 66.257812 C 46.636719 68.269531 53.863281 68.402344 59.371094 66.585938 C 73.433594 61.945312 82.289062 48.953125 81.203125 34.558594 C 80.648438 27.203125 73.648438 17.082031 65.816406 12.308594 C 61.726562 9.820312 49.980469 7.324219 48.699219 8.675781 M 58.84375 11.578125 C 67.1875 13.695312 77.667969 24.957031 79.136719 33.382812 C 80.203125 39.511719 77.316406 50.234375 73.484375 54.378906 C 61.277344 67.582031 47.121094 69.558594 33.644531 59.9375 C 26.253906 54.664062 23.601562 48.957031 23.585938 38.292969 C 23.570312 30.121094 24.121094 28.589844 29.761719 21.042969 C 36.039062 12.652344 47.882812 8.796875 58.84375 11.578125 M 47.21875 14.558594 C 34.976562 16.28125 26.03125 27.183594 26.324219 40.019531 L 26.425781 44.464844 L 28.753906 49.144531 C 32.285156 56.238281 34.484375 58.3125 41.296875 60.964844 L 45.09375 62.445312 L 50.792969 62.472656 C 57.449219 62.503906 57.027344 62.644531 63.941406 58.066406 C 79.597656 47.699219 79.824219 30.457031 64.457031 18.542969 C 60.03125 15.109375 53.691406 13.644531 47.21875 14.558594 M 57.714844 17.339844 C 66.574219 20.214844 74.058594 30.339844 73.664062 38.914062 C 73.257812 47.738281 68.140625 54.160156 57.003906 59.8125 L 54.992188 60.835938 L 50.515625 60.6875 C 39.335938 60.316406 32.566406 55.121094 28.597656 43.871094 C 26.757812 38.652344 29.574219 28.554688 34.234375 23.664062 C 40.273438 17.328125 49.789062 14.765625 57.714844 17.339844 M 63.105469 70.300781 C 62.796875 70.796875 62.050781 75.972656 62.035156 77.714844 C 62.023438 79.363281 61.773438 79.597656 61.03125 78.65625 C 57.753906 74.492188 52.214844 77.273438 52.214844 83.082031 C 52.214844 84.316406 52.164062 84.394531 51.441406 84.257812 C 50.964844 84.167969 50.304688 84.367188 49.730469 84.777344 C 46.800781 86.863281 44.238281 84.035156 46.292969 80.980469 C 46.933594 80.027344 47.207031 79.886719 48.746094 79.746094 C 50.253906 79.609375 50.488281 79.496094 50.578125 78.859375 C 50.851562 76.929688 47.398438 76.464844 45.457031 78.167969 C 44.550781 78.964844 44.339844 79.035156 44.179688 78.613281 C 44.023438 78.207031 43.589844 78.128906 41.980469 78.210938 C 40.40625 78.292969 39.859375 78.195312 39.429688 77.765625 C 38.738281 77.074219 38.339844 77.074219 37.578125 77.761719 C 37.003906 78.28125 36.957031 78.28125 36.667969 77.761719 C 35.617188 75.882812 34.304688 77.375 34.082031 80.699219 C 33.839844 84.308594 33.488281 85.199219 32.359375 85.070312 C 31.304688 84.945312 31.019531 82.96875 31.644531 80.128906 C 32.066406 78.21875 31.765625 77.53125 30.511719 77.53125 C 29.660156 77.53125 29.117188 78.355469 29.109375 79.648438 L 29.105469 80.539062 L 28.273438 79.476562 C 25.015625 75.34375 19.332031 78.082031 19.199219 83.847656 C 19.097656 88.207031 24.425781 89.894531 27.761719 86.5625 C 28.503906 85.816406 29.113281 85.382812 29.113281 85.597656 C 29.113281 87.261719 32.726562 88.351562 34.390625 87.1875 C 34.980469 86.773438 35.105469 86.773438 35.449219 87.1875 C 35.886719 87.71875 37.203125 87.820312 37.496094 87.347656 C 37.617188 87.152344 37.90625 87.171875 38.28125 87.410156 C 39.316406 88.054688 39.757812 87.285156 39.976562 84.445312 C 40.203125 81.542969 40.621094 80.824219 42.199219 80.640625 L 43.214844 80.523438 L 43.207031 83.132812 C 43.195312 85.652344 43.230469 85.78125 44.203125 86.753906 C 46.386719 88.941406 52.214844 87.925781 52.214844 85.359375 C 52.214844 84.804688 52.390625 84.902344 53.296875 85.960938 C 55.011719 87.960938 58.816406 88.6875 60.53125 87.339844 C 61.566406 86.523438 61.648438 86.539062 61.765625 87.578125 C 61.839844 88.210938 62.066406 88.476562 62.597656 88.554688 C 64.015625 88.753906 64.242188 88.179688 64.242188 84.308594 C 64.242188 81.085938 64.304688 80.683594 64.851562 80.390625 C 66.394531 79.566406 66.933594 80.710938 66.835938 84.625 C 66.78125 86.878906 66.871094 87.558594 67.292969 88.027344 C 68.28125 89.121094 69.886719 88.394531 69.527344 87.019531 C 69.382812 86.464844 69.511719 86.507812 70.425781 87.3125 C 71.941406 88.640625 74.089844 88.933594 75.738281 88.03125 C 76.824219 87.4375 77.058594 87.40625 77.800781 87.785156 C 79.550781 88.679688 80.746094 87.316406 79.433594 85.921875 C 77.996094 84.390625 77.683594 79.113281 79.035156 79.117188 C 81.207031 79.128906 81.328125 79.28125 81.328125 81.925781 C 81.328125 86.242188 85.066406 89.804688 87.277344 87.59375 C 88.28125 86.59375 87.359375 84.949219 85.988281 85.296875 C 84.6875 85.621094 83.859375 84.234375 83.859375 81.730469 L 83.859375 79.6875 L 85.523438 79.945312 C 88.9375 80.480469 90.335938 80.324219 90.441406 79.402344 C 90.578125 78.257812 90.097656 78 86.953125 77.550781 L 84.1875 77.152344 L 84.261719 74.257812 C 84.332031 71.449219 84.3125 71.359375 83.605469 71.257812 C 82.40625 71.085938 82.054688 71.691406 81.824219 74.335938 L 81.609375 76.824219 L 79.980469 76.78125 C 78.644531 76.746094 78.296875 76.855469 78.023438 77.378906 C 77.828125 77.753906 77.453125 77.972656 77.121094 77.910156 C 76.007812 77.6875 75.632812 78.429688 75.632812 80.851562 C 75.632812 85.101562 74.863281 86.488281 72.914062 85.746094 C 71.460938 85.195312 71.019531 82.667969 71.851562 79.671875 C 72.082031 78.84375 72.078125 78.300781 71.839844 77.851562 C 71.128906 76.527344 69.304688 77.539062 69.304688 79.261719 L 69.304688 80.148438 L 68.644531 79.308594 C 67.773438 78.203125 66.25 77.4375 65.285156 77.621094 L 64.515625 77.769531 L 64.769531 75.671875 C 65.28125 71.441406 65.148438 70.109375 64.191406 69.996094 C 63.730469 69.945312 63.238281 70.078125 63.105469 70.300781 M 12.230469 75.195312 C 9.441406 77.984375 10.425781 81.894531 14.519531 84.289062 C 16.542969 85.46875 16.816406 86.292969 15.414062 86.964844 C 14.242188 87.527344 12.996094 87.09375 12.328125 85.894531 C 11.546875 84.484375 10.007812 84.558594 9.867188 86.019531 C 9.527344 89.546875 15.253906 91.125 18.09375 88.285156 C 19.964844 86.414062 18.996094 83.679688 15.851562 81.960938 C 13.46875 80.660156 13.128906 80.21875 13.410156 78.769531 C 13.832031 76.566406 14.515625 76.433594 16.460938 78.167969 C 17.929688 79.480469 18.988281 79.269531 18.988281 77.660156 C 18.988281 75.28125 13.972656 73.453125 12.230469 75.195312 M 57.859375 79.546875 C 58.582031 79.945312 58.558594 79.972656 56.941406 80.644531 C 54.96875 81.464844 54.90625 81.4375 55.703125 80.128906 C 56.375 79.023438 56.738281 78.925781 57.859375 79.546875 M 25.972656 80.988281 C 28.429688 83.445312 24.925781 87.296875 22.292969 85.035156 C 21.265625 84.148438 21.550781 82.464844 22.992188 80.964844 C 24.085938 79.820312 24.8125 79.828125 25.972656 80.988281 M 61.707031 82.585938 C 61.707031 83.847656 61.617188 84.121094 61.238281 83.976562 C 60.980469 83.878906 60.328125 84.167969 59.789062 84.621094 C 58.738281 85.507812 57.832031 85.636719 56.433594 85.105469 C 54.847656 84.503906 55.015625 84.109375 57.1875 83.351562 C 58.324219 82.953125 59.773438 82.273438 60.402344 81.839844 C 61.035156 81.40625 61.585938 81.042969 61.628906 81.03125 C 61.671875 81.019531 61.707031 81.71875 61.707031 82.585938 M 37.253906 84.410156 C 37.179688 84.890625 37.117188 84.574219 37.117188 83.703125 C 37.113281 82.832031 37.171875 82.4375 37.246094 82.828125 C 37.324219 83.21875 37.324219 83.929688 37.253906 84.410156 "/>
</g>
</svg>
