<svg id="svg" xmlns="http://www.w3.org/2000/svg" xmlns:xlink="http://www.w3.org/1999/xlink" width="400" height="400" viewBox="0, 0, 400,400" version="1.1"><g id="svgg"><path id="path0" d="M194.799 34.696 C 194.375 35.142,188.964 36.380,182.774 37.446 C 152.671 42.632,127.241 57.511,112.644 78.481 C 87.871 114.070,86.082 119.015,86.089 151.899 C 86.102 211.508,107.723 242.091,166.068 265.026 C 186.550 273.077,215.449 273.608,237.482 266.338 C 293.736 247.774,329.162 195.813,324.819 138.234 C 322.600 108.817,294.599 68.335,263.258 49.236 C 246.913 39.274,199.928 29.296,194.799 34.696 M235.381 46.316 C 268.757 54.782,310.677 99.825,316.545 133.527 C 320.815 158.041,309.268 200.944,293.941 217.521 C 245.112 270.329,188.491 278.227,134.571 239.750 C 105.020 218.663,94.409 195.824,94.341 153.165 C 94.289 120.479,96.483 114.354,119.050 84.177 C 144.149 50.616,191.535 35.193,235.381 46.316 M188.875 58.230 C 139.909 65.123,104.119 108.733,105.291 160.079 L 105.696 177.856 115.010 196.571 C 129.138 224.957,137.933 233.246,165.190 243.861 L 180.380 249.777 203.165 249.889 C 229.794 250.019,228.105 250.585,255.759 232.271 C 318.393 190.793,319.294 121.821,257.825 74.166 C 240.125 60.444,214.773 54.585,188.875 58.230 M230.864 69.358 C 266.300 80.866,296.230 121.357,294.655 155.656 C 293.034 190.952,272.562 216.636,228.019 239.257 L 219.963 243.348 202.070 242.752 C 157.348 241.263,130.272 220.490,114.394 175.486 C 107.028 154.611,118.292 114.223,136.933 94.663 C 161.090 69.316,199.159 59.060,230.864 69.358 M252.417 281.199 C 251.187 283.188,248.206 303.897,248.146 310.865 C 248.089 317.456,247.092 318.389,244.131 314.625 C 231.023 297.961,208.861 309.086,208.861 332.328 C 208.861 337.263,208.650 337.583,205.764 337.032 C 203.860 336.668,201.226 337.466,198.923 339.106 C 187.202 347.452,176.957 336.143,185.168 323.921 C 187.734 320.102,188.833 319.549,194.978 318.987 C 201.016 318.435,201.951 317.982,202.312 315.437 C 203.406 307.721,189.589 305.854,181.829 312.667 C 178.199 315.854,177.367 316.144,176.717 314.451 C 176.094 312.828,174.357 312.510,167.924 312.840 C 161.620 313.165,159.438 312.784,157.711 311.057 C 154.948 308.294,153.359 308.292,150.312 311.050 C 148.020 313.124,147.830 313.124,146.669 311.050 C 142.464 303.536,137.223 309.493,136.331 322.801 C 135.364 337.233,133.957 340.795,129.430 340.274 C 125.217 339.789,124.078 331.882,126.581 320.509 C 128.263 312.868,127.064 310.127,122.041 310.127 C 118.642 310.127,116.462 313.420,116.442 318.588 L 116.428 322.152 113.086 317.911 C 100.061 301.381,77.329 312.327,76.798 335.385 C 76.398 352.824,97.710 359.585,111.047 346.248 C 114.022 343.273,116.456 341.536,116.456 342.387 C 116.456 349.050,130.909 353.414,137.557 348.757 C 139.923 347.101,140.416 347.101,141.791 348.757 C 143.546 350.872,148.817 351.281,149.984 349.393 C 150.470 348.607,151.618 348.695,153.120 349.633 C 157.271 352.225,159.038 349.143,159.914 337.786 C 160.809 326.176,162.484 323.304,168.790 322.568 L 172.864 322.092 172.824 332.534 C 172.786 342.602,172.929 343.120,176.812 347.009 C 185.552 355.765,208.861 351.708,208.861 341.432 C 208.861 339.217,209.568 339.611,213.193 343.846 C 220.040 351.846,235.271 354.753,242.118 349.367 C 246.273 346.099,246.590 346.160,247.068 350.316 C 247.358 352.837,248.273 353.912,250.386 354.211 C 256.070 355.017,256.962 352.714,256.962 337.231 C 256.962 324.349,257.213 322.740,259.402 321.568 C 265.583 318.260,267.735 322.845,267.345 338.494 C 267.120 347.518,267.485 350.239,269.171 352.102 C 273.130 356.477,279.548 353.583,278.107 348.073 C 277.530 345.865,278.041 346.032,281.701 349.246 C 287.764 354.570,296.359 355.732,302.952 352.120 C 307.293 349.743,308.237 349.632,311.205 351.148 C 318.207 354.724,322.981 349.270,317.736 343.687 C 311.979 337.558,310.740 316.446,316.139 316.473 C 324.821 316.516,325.316 317.122,325.316 327.699 C 325.316 344.976,340.268 359.226,349.114 350.380 C 353.121 346.373,349.440 339.804,343.959 341.180 C 338.756 342.486,335.443 336.941,335.443 326.926 L 335.443 318.750 342.089 319.786 C 355.750 321.916,361.344 321.299,361.773 317.613 C 362.306 313.024,360.390 312.006,347.808 310.196 L 336.756 308.606 337.049 297.024 C 337.333 285.796,337.253 285.430,334.424 285.029 C 329.625 284.349,328.225 286.770,327.303 297.341 L 326.434 307.299 319.929 307.131 C 314.583 306.992,313.187 307.418,312.092 309.522 C 311.316 311.013,309.809 311.894,308.483 311.633 C 304.031 310.754,302.532 313.721,302.532 323.414 C 302.532 340.409,299.449 345.957,291.652 342.992 C 285.844 340.784,284.076 330.671,287.403 318.689 C 288.325 315.369,288.310 313.202,287.352 311.411 C 284.511 306.103,277.215 310.156,277.215 317.043 L 277.215 320.595 274.572 317.234 C 271.096 312.815,264.996 309.748,261.146 310.483 L 258.061 311.073 259.077 302.689 C 261.130 285.762,260.588 280.433,256.765 279.991 C 254.916 279.777,252.960 280.320,252.417 281.199 M48.923 300.789 C 37.771 311.941,41.710 327.585,58.079 337.150 C 66.169 341.877,67.271 345.171,61.664 347.858 C 56.968 350.109,51.978 348.381,49.319 343.584 C 46.186 337.931,40.030 338.239,39.470 344.077 C 38.116 358.194,61.009 364.502,72.369 353.143 C 79.855 345.657,75.977 334.717,63.404 327.850 C 53.872 322.644,52.521 320.878,53.636 315.080 C 55.331 306.272,58.067 305.734,65.845 312.678 C 71.725 317.927,75.949 317.074,75.949 310.637 C 75.949 301.128,55.893 293.819,48.923 300.789 M231.438 318.185 C 234.321 319.785,234.230 319.894,227.758 322.583 C 219.871 325.861,219.623 325.757,222.813 320.511 C 225.503 316.088,226.952 315.697,231.438 318.185 M103.895 323.953 C 113.715 333.774,99.699 349.190,89.178 340.141 C 85.058 336.597,86.210 329.856,91.962 323.853 C 96.338 319.284,99.251 319.309,103.895 323.953 M246.835 330.340 C 246.835 335.383,246.463 336.486,244.955 335.908 C 243.921 335.511,241.315 336.668,239.162 338.479 C 234.947 342.026,231.328 342.551,225.741 340.427 C 219.384 338.010,220.056 336.443,228.751 333.405 C 233.299 331.816,239.087 329.095,241.612 327.359 C 244.137 325.623,246.345 324.169,246.519 324.127 C 246.693 324.085,246.835 326.881,246.835 330.340 M149.010 337.641 C 148.719 339.565,148.473 338.291,148.463 334.810 C 148.454 331.329,148.692 329.755,148.992 331.312 C 149.293 332.869,149.301 335.717,149.010 337.641 " stroke="none" fill="#000000" fill-rule="evenodd"></path></g></svg>