<?xml version="1.0" standalone="no"?>
<!DOCTYPE svg PUBLIC "-//W3C//DTD SVG 20010904//EN"
 "http://www.w3.org/TR/2001/REC-SVG-20010904/DTD/svg10.dtd">
<svg version="1.0" xmlns="http://www.w3.org/2000/svg"
 width="400.000000pt" height="400.000000pt" viewBox="0 0 400.000000 400.000000"
 preserveAspectRatio="xMidYMid meet">
<metadata>
Created by potrace 1.14, written by Peter Selinger 2001-2017
</metadata>
<g transform="translate(0.000000,400.000000) scale(0.100000,-0.100000)"
fill="#000000" stroke="none">
<path d="M1849 3996 c-2 -2 -35 -6 -74 -10 -109 -10 -307 -54 -418 -92 -91
-31 -307 -132 -393 -182 -69 -40 -223 -155 -288 -214 -53 -49 -69 -70 -69 -91
0 -54 12 -56 324 -57 265 0 287 1 302 18 23 25 21 54 -4 81 -19 20 -29 22
-132 21 -62 -1 -148 -1 -192 0 l-80 0 25 20 c116 92 326 210 482 270 89 34
274 84 348 95 25 3 52 8 60 10 55 15 313 21 425 10 87 -8 236 -34 315 -54 297
-77 607 -255 840 -482 261 -255 467 -636 525 -974 3 -16 10 -55 15 -85 5 -30
13 -92 16 -137 l6 -83 -1881 0 -1881 0 1 50 2 50 867 0 c677 0 870 3 883 13
24 18 30 59 13 82 -14 20 -27 20 -923 21 -725 2 -912 -1 -926 -11 -27 -19 -35
-99 -33 -300 2 -184 8 -215 44 -234 10 -5 298 -9 670 -9 l653 1 19 25 c25 31
25 47 0 72 -20 20 -33 20 -643 20 l-623 0 -3 50 -2 50 1881 0 1881 0 -3 -47
-3 -48 -378 -5 c-360 -5 -379 -6 -393 -24 -20 -28 -18 -43 9 -70 l23 -23 350
-1 c192 0 355 -1 362 -1 9 -1 10 -13 6 -43 -14 -89 -1 -84 -185 -83 -90 1
-174 -3 -187 -9 -30 -13 -38 -50 -18 -81 18 -28 11 -27 213 -27 l131 -1 -14
-48 c-18 -59 -99 -255 -119 -285 -13 -21 -15 -21 -495 -21 -515 0 -499 2 -514
-49 -4 -14 0 -30 13 -45 l19 -24 446 0 c245 0 446 -3 446 -6 0 -4 -25 -42 -56
-85 -146 -204 -313 -364 -521 -498 -169 -109 -432 -220 -593 -250 -14 -3 -50
-10 -80 -16 -30 -6 -77 -13 -105 -16 -27 -3 -61 -7 -75 -10 -75 -12 -349 -2
-445 16 -27 5 -66 12 -85 15 -169 27 -442 133 -605 236 -95 59 -195 130 -195
138 0 4 75 6 167 6 153 0 168 1 185 19 23 25 23 48 0 75 -16 20 -25 21 -273
22 -170 1 -262 -2 -276 -9 -11 -6 -23 -24 -26 -39 -4 -23 3 -36 46 -78 73 -72
215 -180 312 -238 120 -71 397 -191 488 -212 12 -2 49 -11 82 -20 33 -8 80
-17 104 -21 25 -3 48 -7 51 -9 30 -18 402 -27 535 -12 346 38 696 179 990 400
101 76 303 278 378 379 216 290 351 624 394 978 15 125 7 486 -12 543 -2 7 -7
30 -10 52 -10 68 -52 226 -85 315 -210 576 -682 1032 -1262 1221 -104 33 -194
54 -368 84 -37 7 -395 16 -401 11z"/>
<path d="M2833 3305 c-72 -26 -109 -51 -161 -110 -82 -93 -124 -224 -121 -372
2 -110 10 -152 45 -245 88 -233 299 -408 493 -408 386 0 554 512 296 899 -139
210 -362 305 -552 236z m270 -130 c87 -43 170 -132 223 -240 50 -105 54 -120
61 -240 6 -104 -12 -193 -53 -262 -34 -59 -69 -91 -132 -120 -193 -91 -447 95
-518 377 -58 229 31 459 197 509 59 18 158 7 222 -24z"/>
<path d="M2978 2873 c-47 -12 -67 -105 -38 -170 55 -124 197 -100 192 33 -4
92 -77 158 -154 137z"/>
<path d="M432 3218 c-21 -6 -43 -31 -88 -100 -115 -177 -117 -180 -86 -218 16
-20 26 -21 177 -23 153 -2 161 -1 183 20 28 28 28 48 -1 77 -20 20 -31 22
-119 21 l-98 -1 17 26 c8 14 26 39 38 55 l22 30 469 0 c504 0 499 -1 508 51 5
25 -26 64 -52 65 -106 5 -949 2 -970 -3z"/>
<path d="M146 2731 c-22 -24 -86 -223 -86 -266 0 -61 -9 -60 469 -60 240 -1
444 1 454 3 10 3 24 16 31 30 17 32 3 68 -28 78 -12 4 -195 7 -407 7 l-387 0
15 51 c8 28 16 52 18 54 2 2 81 3 176 3 174 0 222 8 233 36 9 23 -4 62 -24 73
-11 6 -113 10 -233 10 -199 0 -215 -1 -231 -19z"/>
<path d="M77 1579 c-28 -22 -25 -56 18 -187 24 -76 43 -116 58 -127 18 -13 84
-15 472 -15 358 0 455 3 469 13 26 19 28 61 5 86 -18 20 -29 20 -445 20 -234
-1 -427 1 -429 3 -1 1 -10 26 -18 54 l-15 51 809 0 c768 0 810 1 829 18 23 21
26 53 6 81 -14 18 -36 19 -877 19 -774 0 -865 -2 -882 -16z"/>
<path d="M259 1104 c-10 -11 -19 -27 -19 -35 0 -33 100 -198 158 -261 l26 -28
676 0 c526 0 680 3 692 13 29 22 31 55 6 80 l-24 24 -630 1 c-346 0 -638 1
-650 1 -19 1 -84 76 -84 98 0 4 43 8 96 9 89 0 98 2 115 23 24 29 24 43 1 71
-17 21 -25 23 -181 24 -152 1 -163 0 -182 -20z"/>
</g>
</svg>
